# xmcd
#
# Track frame offsets:
#	150
#	14540
#	30643
#	49409
#	63872
#	80218
#	96884
#	112295
#	124691
#	142486
#	157764
#	177417
#	197108
#	220136
#	237298
#
# Disc length: 3368 seconds
#
# Revision: 1
# Processed by: cddbd v1.5.2PL0 Copyright (c) Steve Scherf et al.
# Submitted via: audiograbber 1.83.01
#
DISCID=e00d260f
DTITLE=Various Artist - CB-E6-07
DYEAR=1900
DGENRE=Karaoke
TTITLE0=Sammy Kershaw - She Don't Know She's Beautiful
TTITLE1=Tanya Tucker - Down To My Last Teardrop
TTITLE2=Vern Gosdin - That Just About Does It
TTITLE3=Patty Loveless - I'm That Kind Of Girl
TTITLE4=Alabama - Down Home
TTITLE5=Tanya Tucker - Oh, What It Did To Me
TTITLE6=Alan Jackson - Summertime Blues
TTITLE7=Martina McBride - My Baby Loves Me
TTITLE8=Travis Tritt - Anymore
TTITLE9=Terri Clark - Better Things To Do
TTITLE10=Vince Gill - Pocket Full Of Gold
TTITLE11=Reba McEntire and Linda Davis - Does He Love You
TTITLE12=Patty Loveless - How Can I Help You Say Goodbye
TTITLE13=David Lee Murphy - Dust On The Bottle
TTITLE14=Faith Hill - It Matters To Me
EXTD=
EXTT0=
EXTT1=
EXTT2=
EXTT3=
EXTT4=
EXTT5=
EXTT6=
EXTT7=
EXTT8=
EXTT9=
EXTT10=
EXTT11=
EXTT12=
EXTT13=
EXTT14=
PLAYORDER=
